<?xml version="1.0" encoding="UTF-8"?>
<svg version="1.1" xmlns="http://www.w3.org/2000/svg" width="650" height="650">
<path d="M0 0 C3.67254949 0.42719293 5.90439767 1.35425609 8.7578125 3.66796875 C9.45559814 4.22403809 10.15338379 4.78010742 10.87231445 5.35302734 C11.61570068 5.95840332 12.35908691 6.5637793 13.125 7.1875 C14.74439557 8.47739528 16.36554396 9.76509251 17.98828125 11.05078125 C18.81924316 11.71029785 19.65020508 12.36981445 20.50634766 13.04931641 C24.37849889 16.07834405 28.34158411 18.97742864 32.3125 21.875 C33.87795491 23.02686721 35.44305264 24.17922002 37.0078125 25.33203125 C39.6266736 27.26002391 42.24982149 29.18129201 44.88183594 31.09130859 C47.82832359 33.23346391 50.75875836 35.39616962 53.6875 37.5625 C54.6153833 38.22942871 55.5432666 38.89635742 56.49926758 39.58349609 C57.34900146 40.21723145 58.19873535 40.8509668 59.07421875 41.50390625 C59.83307373 42.05892822 60.59192871 42.6139502 61.3737793 43.18579102 C63 45 63 45 63.43334961 47.44262695 C62.91073535 50.52678717 61.93119285 51.96974386 59.9921875 54.4140625 C59.017052 55.66485596 59.017052 55.66485596 58.0222168 56.94091797 C57.31363525 57.82666504 56.60505371 58.71241211 55.875 59.625 C54.39837863 61.51456226 52.9231452 63.40520986 51.44921875 65.296875 C50.7020459 66.25013672 49.95487305 67.20339844 49.18505859 68.18554688 C45.94374759 72.36050031 42.80913361 76.61020202 39.6875 80.875 C39.1212793 81.64642334 38.55505859 82.41784668 37.97167969 83.21264648 C36.31286856 85.47394127 34.6564108 87.73694666 33 90 C31.89475897 91.50667749 30.78929421 93.01319089 29.68359375 94.51953125 C27.12057488 98.01168938 24.55961294 101.50534479 22 105 C24.46864778 107.47304039 26.94089368 109.94174891 29.4296875 112.39453125 C34.51645358 117.42441656 39.42832483 122.49756462 44 128 C44.41975098 128.50063965 44.83950195 129.0012793 45.27197266 129.51708984 C57.54069239 144.21821662 68.15640529 160.01332853 77 177 C77.45874512 177.87414551 77.91749023 178.74829102 78.39013672 179.64892578 C114.79997388 249.83960099 119.93018649 338.99695331 96.99511719 414.29931641 C92.32025582 428.97735271 86.75674736 443.15993879 80 457 C79.63358398 457.7626416 79.26716797 458.5252832 78.88964844 459.31103516 C66.28977136 485.29897061 48.88215022 508.19844399 29 529 C27.94039062 530.12148437 27.94039062 530.12148437 26.859375 531.265625 C22.46981156 535.79793847 17.74133636 539.79443091 12.81640625 543.734375 C11.05131551 545.15428156 9.3054783 546.59884205 7.58984375 548.078125 C-6.77286403 560.36950725 -23.2319593 570.35609282 -40 579 C-40.78213867 579.40669922 -41.56427734 579.81339844 -42.37011719 580.23242188 C-74.83804568 596.92872525 -109.9903367 606.0018133 -146 611 C-146.94069336 611.13277344 -147.88138672 611.26554688 -148.85058594 611.40234375 C-179.57232878 615.49397879 -212.38005939 614.32764314 -243 610 C-244.00643555 609.86078125 -245.01287109 609.7215625 -246.04980469 609.578125 C-274.72446874 605.46678917 -303.0472797 597.26663032 -329.32104492 585.03125 C-332.10052782 583.74551327 -333.88981344 583 -337 583 C-338.46802816 584.43708381 -338.46802816 584.43708381 -339.79296875 586.41796875 C-340.33244141 587.16691406 -340.87191406 587.91585937 -341.42773438 588.6875 C-342.00845703 589.5125 -342.58917969 590.3375 -343.1875 591.1875 C-344.45009379 592.94265141 -345.7144832 594.69651222 -346.98046875 596.44921875 C-347.63966309 597.36493652 -348.29885742 598.2806543 -348.97802734 599.22412109 C-352.24344422 603.70707085 -355.62206921 608.10157984 -359 612.5 C-366.45950119 622.24149869 -373.75994385 632.09462962 -381 642 C-384.78508673 641.34090529 -387.13456775 640.65317801 -390 638 C-390 637.34 -390 636.68 -390 636 C-391.10093994 635.60409668 -391.10093994 635.60409668 -392.22412109 635.20019531 C-395.00606179 633.99737909 -397.02993026 632.65405476 -399.4140625 630.796875 C-400.24832764 630.15298828 -401.08259277 629.50910156 -401.94213867 628.84570312 C-402.82748291 628.15412109 -403.71282715 627.46253906 -404.625 626.75 C-406.50807704 625.29553071 -408.39221466 623.84243365 -410.27734375 622.390625 C-411.2297998 621.65650391 -412.18225586 620.92238281 -413.16357422 620.16601562 C-417.46125683 616.884122 -421.82130784 613.68985198 -426.1875 610.5 C-432.58740417 605.8152833 -438.88848559 601.05888853 -445 596 C-444.38888772 592.81099253 -443.33982214 590.78328416 -441.40234375 588.19140625 C-440.85618408 587.4550293 -440.31002441 586.71865234 -439.74731445 585.95996094 C-438.8514563 584.77321777 -438.8514563 584.77321777 -437.9375 583.5625 C-437.31770264 582.73137695 -436.69790527 581.90025391 -436.05932617 581.04394531 C-430.68681534 573.85915842 -425.24014981 566.73005285 -419.78881836 559.60498047 C-414.08746007 552.14553417 -408.510933 544.60088428 -403 537 C-406.59194046 532.70307014 -410.27979205 528.64529716 -414.3125 524.75 C-419.64934969 519.49757402 -424.37996256 513.89620163 -429 508 C-429.77859375 507.03835938 -430.5571875 506.07671875 -431.359375 505.0859375 C-472.93679712 452.78312942 -491.29458138 386.15184878 -491.1875 320.0625 C-491.18656342 319.30409821 -491.18562683 318.54569641 -491.18466187 317.76431274 C-490.98102354 240.99868113 -465.47986899 167.64599605 -410.9375 112.6875 C-405.25975757 107.05298127 -399.30998248 101.920388 -393 97 C-391.9333603 96.13339698 -390.86832866 95.26481197 -389.8046875 94.39453125 C-323.24216662 40.34853293 -232.88791205 23.97059217 -149.22412109 32.58935547 C-115.32018593 36.47883364 -81.18086186 44.1874699 -50.29272461 59.06005859 C-47.95035497 60.18966357 -47.95035497 60.18966357 -45 60 C-43.53197184 58.56291619 -43.53197184 58.56291619 -42.20703125 56.58203125 C-41.66755859 55.83308594 -41.12808594 55.08414063 -40.57226562 54.3125 C-39.99154297 53.4875 -39.41082031 52.6625 -38.8125 51.8125 C-37.54990621 50.05734859 -36.2855168 48.30348778 -35.01953125 46.55078125 C-34.03073975 45.17720459 -34.03073975 45.17720459 -33.02197266 43.77587891 C-29.75655718 39.29293108 -26.37798976 34.8983728 -23 30.5 C-16.99296087 22.65731397 -11.08522176 14.74815369 -5.25195312 6.77539062 C-4.70603516 6.02966797 -4.16011719 5.28394531 -3.59765625 4.515625 C-3.11820557 3.85852539 -2.63875488 3.20142578 -2.14477539 2.52441406 C-1 1 -1 1 0 0 Z M-231 158 C-231.86012695 158.23074219 -232.72025391 158.46148437 -233.60644531 158.69921875 C-253.0690608 164.11864317 -271.22277769 173.37449782 -287 186 C-287.58861816 186.47050781 -288.17723633 186.94101563 -288.78369141 187.42578125 C-322.44707524 214.665541 -341.00503424 254.36854802 -346 297 C-346.11085938 297.88429688 -346.22171875 298.76859375 -346.3359375 299.6796875 C-350.47587908 339.17696797 -343.8518586 390.03177107 -318 422 C-314.77582501 420.62803826 -313.1326783 419.23080266 -311.109375 416.38671875 C-310.305 415.27296875 -310.305 415.27296875 -309.484375 414.13671875 C-308.91203125 413.32847656 -308.3396875 412.52023437 -307.75 411.6875 C-306.49646672 409.95061278 -305.2411934 408.21498032 -303.984375 406.48046875 C-303.33146484 405.57731934 -302.67855469 404.67416992 -302.00585938 403.74365234 C-298.73972237 399.27616845 -295.36933517 394.88986281 -292 390.5 C-286.93251817 383.88128543 -281.92563112 377.22494842 -277 370.5 C-271.4133758 362.87259983 -265.70723662 355.34355435 -259.9609375 347.8359375 C-255.57935674 342.10097273 -251.26457042 336.32240437 -247 330.5 C-241.4133758 322.87259983 -235.70723662 315.34355435 -229.9609375 307.8359375 C-225.57935674 302.10097273 -221.26457042 296.32240437 -217 290.5 C-211.4133758 282.87259983 -205.70723662 275.34355435 -199.9609375 267.8359375 C-195.57935674 262.10097273 -191.26457042 256.32240437 -187 250.5 C-181.4133758 242.87259983 -175.70723662 235.34355435 -169.9609375 227.8359375 C-165.57935579 222.10097147 -161.26462136 216.32236825 -157 210.5 C-150.66425654 201.85125066 -144.17961087 193.32145855 -137.66796875 184.8046875 C-133.40734151 179.23132646 -129.19241147 173.62481873 -125 168 C-143.2338948 155.84407014 -169.20446357 153.56739908 -190.4375 153.625 C-191.22891388 153.62587616 -192.02032776 153.62675232 -192.83572388 153.62765503 C-205.90163986 153.67522731 -218.3359102 154.55114123 -231 158 Z M-65 219 C-65.3403125 219.46559326 -65.680625 219.93118652 -66.03125 220.41088867 C-72.93291757 229.84217343 -79.89632231 239.21969592 -87 248.5 C-92.06654406 255.11944954 -97.07435294 261.77502981 -102 268.5 C-107.5866242 276.12740017 -113.29276338 283.65644565 -119.0390625 291.1640625 C-123.42064326 296.89902727 -127.73542958 302.67759563 -132 308.5 C-137.5866242 316.12740017 -143.29276338 323.65644565 -149.0390625 331.1640625 C-153.42064326 336.89902727 -157.73542958 342.67759563 -162 348.5 C-167.5866242 356.12740017 -173.29276338 363.65644565 -179.0390625 371.1640625 C-183.42064326 376.89902727 -187.73542958 382.67759563 -192 388.5 C-197.5866242 396.12740017 -203.29276338 403.65644565 -209.0390625 411.1640625 C-214.0045898 417.6633434 -218.87178773 424.22867507 -223.7043457 430.82714844 C-228.78788174 437.7513124 -233.99460183 444.57777721 -239.21484375 451.39916992 C-244.91419616 458.85783276 -250.49014197 466.40059836 -256 474 C-253.32290399 477.34141242 -249.77458722 478.51505021 -245.875 479.9375 C-245.16851318 480.19692383 -244.46202637 480.45634766 -243.73413086 480.72363281 C-206.55662689 493.95359454 -162.67048372 492.6398475 -126.86328125 475.8671875 C-125.57436608 475.24718658 -124.28658974 474.62481221 -123 474 C-122.37528809 473.70254883 -121.75057617 473.40509766 -121.10693359 473.09863281 C-85.22788169 455.82664582 -58.69219849 423.38393315 -45.39111328 386.22558594 C-29.36914812 339.64198188 -29.38865944 286.4294319 -50.98852539 241.52954102 C-52.59070639 238.31473759 -54.27106704 235.14821895 -56 232 C-56.4964502 231.09338623 -56.4964502 231.09338623 -57.00292969 230.16845703 C-60.03949206 223.66922671 -60.03949206 223.66922671 -65 219 Z " fill="#293E6A" transform="translate(515,4)"/>
<path d="M0 0 C1.953125 0.8671875 1.953125 0.8671875 4 2 C4.75 4.125 4.75 4.125 5 6 C4.01 5.01 3.02 4.02 2 3 C-4.12267959 10.20791644 -9.77443857 17.69212578 -15.35205078 25.32348633 C-19.82916938 31.43896648 -24.39141602 37.48309858 -29 43.5 C-34.06676416 50.11927656 -39.0743568 56.77503508 -44 63.5 C-49.5866242 71.12740017 -55.29276338 78.65644565 -61.0390625 86.1640625 C-65.42064326 91.89902727 -69.73542958 97.67759563 -74 103.5 C-79.5866242 111.12740017 -85.29276338 118.65644565 -91.0390625 126.1640625 C-95.42064326 131.89902727 -99.73542958 137.67759563 -104 143.5 C-109.5866242 151.12740017 -115.29276338 158.65644565 -121.0390625 166.1640625 C-125.42064326 171.89902727 -129.73542958 177.67759563 -134 183.5 C-139.5866242 191.12740017 -145.29276338 198.65644565 -151.0390625 206.1640625 C-155.99825663 212.65505404 -160.86201838 219.21006078 -165.68457031 225.80297852 C-170.96422749 233.00093128 -176.38493538 240.08860829 -181.84765625 247.1484375 C-182.81251953 248.40333984 -182.81251953 248.40333984 -183.796875 249.68359375 C-184.65297363 250.79045532 -184.65297363 250.79045532 -185.52636719 251.91967773 C-186.91782413 253.88399261 -187.9916246 255.8185725 -189 258 C-154.53099315 273.19769847 -114.91212492 275.75833868 -78.80078125 264.671875 C-76 264 -76 264 -73 265 C-77.69493691 267.19763004 -82.08871922 268.58663388 -87.1796875 269.5703125 C-89.00897624 269.83372811 -89.00897624 269.83372811 -90 271 C-101.20296126 273.15182204 -112.44214457 273.40126654 -123.8125 273.375 C-124.66117645 273.37478851 -125.50985291 273.37457703 -126.38424683 273.37435913 C-146.11078504 273.32553851 -165.68692509 271.94819674 -184 264 C-184.77601563 263.7215625 -185.55203125 263.443125 -186.3515625 263.15625 C-188.3125 262.4375 -188.3125 262.4375 -191 261 C-191.81811523 259.14819336 -191.81811523 259.14819336 -192 257 C-191.08227539 255.13500977 -191.08227539 255.13500977 -189.59765625 253.19140625 C-189.04529297 252.45535156 -188.49292969 251.71929687 -187.92382812 250.9609375 C-187.30958984 250.16945313 -186.69535156 249.37796875 -186.0625 248.5625 C-185.43150391 247.72847656 -184.80050781 246.89445313 -184.15039062 246.03515625 C-182.11245189 243.34723706 -180.05707995 240.67328925 -178 238 C-176.66434041 236.2494789 -175.32969558 234.49818303 -173.99609375 232.74609375 C-171.98815484 230.10890724 -169.97908042 227.47265521 -167.96508789 224.84008789 C-163.58098476 219.10459355 -159.26571727 213.32397015 -155 207.5 C-150.07435123 200.77502748 -145.06642668 194.11954035 -140 187.5 C-134.32769077 180.08717638 -128.73852758 172.62071943 -123.21875 165.09375 C-118.39439448 158.51906141 -113.5049521 151.99500067 -108.60302734 145.47802734 C-104.386467 139.86576045 -100.2137001 134.22322741 -96.0625 128.5625 C-90.4523016 120.91685547 -84.7247857 113.36661918 -78.96118164 105.83618164 C-74.57945239 100.10118579 -70.26463789 94.32249648 -66 88.5 C-60.4133758 80.87259983 -54.70723662 73.34355435 -48.9609375 65.8359375 C-43.99381172 59.33456437 -39.12458035 52.76744729 -34.29125977 46.16625977 C-29.9121743 40.20041439 -25.43925962 34.31115798 -20.9375 28.4375 C-13.77417349 19.08779411 -6.83797244 9.58955382 0 0 Z " fill="#070C14" transform="translate(449,221)"/>
<path d="M0 0 C-2.70471741 1.42868465 -5.31334102 2.47933937 -8.24609375 3.33984375 C-47.76909591 15.40508449 -79.70926652 40.81873845 -99.25 77.3125 C-109.37542252 96.84574872 -115.44104772 118.15963981 -118 140 C-118.11085937 140.88429688 -118.22171875 141.76859375 -118.3359375 142.6796875 C-122.67007062 184.02966021 -114.27911269 229.08133097 -91 264 C-89.68 263.67 -88.36 263.34 -87 263 C-87.66 264.32 -88.32 265.64 -89 267 C-89.99 267 -90.98 267 -92 267 C-93.73705735 264.59033429 -95.22143092 262.25782614 -96.6875 259.6875 C-97.34625122 258.54692139 -97.34625122 258.54692139 -98.01831055 257.38330078 C-102.79281432 248.90585607 -106.52621182 240.07471558 -110 231 C-110.47179687 229.7934375 -110.94359375 228.586875 -111.4296875 227.34375 C-127.40467364 183.28850873 -125.67204613 127.93621153 -106.1003418 85.39794922 C-105.08424088 83.25633959 -104.04772096 81.12630115 -103 79 C-102.67241699 78.32710938 -102.34483398 77.65421875 -102.00732422 76.9609375 C-95.53297479 63.79933029 -87.09404436 52.64669735 -77 42 C-76.10667969 41.04222656 -75.21335938 40.08445313 -74.29296875 39.09765625 C-56.81335852 20.72592573 -26.67804781 -1.33390239 0 0 Z " fill="#05080E" transform="translate(288,161)"/>
<path d="M0 0 C3.66112443 0.53863277 5.88775351 1.34076005 8.7578125 3.66796875 C9.45559814 4.22403809 10.15338379 4.78010742 10.87231445 5.35302734 C11.61570068 5.95840332 12.35908691 6.5637793 13.125 7.1875 C14.74439557 8.47739528 16.36554396 9.76509251 17.98828125 11.05078125 C18.81924316 11.71029785 19.65020508 12.36981445 20.50634766 13.04931641 C24.37849889 16.07834405 28.34158411 18.97742864 32.3125 21.875 C33.87795491 23.02686721 35.44305264 24.17922002 37.0078125 25.33203125 C39.6266736 27.26002391 42.24982149 29.18129201 44.88183594 31.09130859 C47.82832359 33.23346391 50.75875836 35.39616962 53.6875 37.5625 C55.07932495 38.56289307 55.07932495 38.56289307 56.49926758 39.58349609 C57.34900146 40.21723145 58.19873535 40.8509668 59.07421875 41.50390625 C59.83307373 42.05892822 60.59192871 42.6139502 61.3737793 43.18579102 C63 45 63 45 63.43334961 47.44262695 C62.91073535 50.52678717 61.93119285 51.96974386 59.9921875 54.4140625 C59.34209717 55.2479248 58.69200684 56.08178711 58.0222168 56.94091797 C57.31363525 57.82666504 56.60505371 58.71241211 55.875 59.625 C54.39837863 61.51456226 52.9231452 63.40520986 51.44921875 65.296875 C50.7020459 66.25013672 49.95487305 67.20339844 49.18505859 68.18554688 C45.94374759 72.36050031 42.80913361 76.61020202 39.6875 80.875 C39.1212793 81.64642334 38.55505859 82.41784668 37.97167969 83.21264648 C36.31286856 85.47394127 34.6564108 87.73694666 33 90 C31.89475897 91.50667749 30.78929421 93.01319089 29.68359375 94.51953125 C27.12057488 98.01168938 24.55961294 101.50534479 22 105 C24.46864778 107.47304039 26.94089368 109.94174891 29.4296875 112.39453125 C34.51645358 117.42441656 39.42832483 122.49756462 44 128 C44.41975098 128.50063965 44.83950195 129.0012793 45.27197266 129.51708984 C64.63388988 152.71771762 82.84457269 181.01879124 92 210 C91.67 210.99 91.34 211.98 91 213 C88.68695973 208.54525577 86.58657847 204.08458274 84.6875 199.4375 C72.38291861 169.62974508 49.34408197 122.17204099 19 107 C19.61111228 103.81099253 20.66017786 101.78328416 22.59765625 99.19140625 C23.14389648 98.45494873 23.69013672 97.71849121 24.25292969 96.9597168 C24.85008789 96.16863525 25.44724609 95.37755371 26.0625 94.5625 C26.9911084 93.31690308 26.9911084 93.31690308 27.93847656 92.04614258 C33.33103811 84.8329521 38.80286503 77.67923385 44.28588867 70.53466797 C48.7033431 64.762296 52.99856155 58.92251498 57.08300781 52.90893555 C58.00817507 51.5720565 58.9975507 50.27995135 60 49 C60.66 49 61.32 49 62 49 C62 48.01 62 47.02 62 46 C61.41855225 45.72559082 60.83710449 45.45118164 60.23803711 45.16845703 C58.05187779 44.02708488 56.17254979 42.7694546 54.19140625 41.3046875 C53.4550293 40.76175049 52.71865234 40.21881348 51.95996094 39.65942383 C51.16879883 39.07056396 50.37763672 38.4817041 49.5625 37.875 C48.73137695 37.25971436 47.90025391 36.64442871 47.04394531 36.01049805 C40.73978642 31.32940729 34.48907034 26.57982769 28.25 21.8125 C18.83828268 14.62215234 18.83828268 14.62215234 9.375 7.5 C8.7655957 7.03698486 8.15619141 6.57396973 7.52832031 6.09692383 C4.14241041 3.53390359 4.14241041 3.53390359 0 3 C-2.68767578 5.43750025 -2.68767578 5.43750025 -5 8 C-3.62845496 5.04590299 -2.01136276 2.55991624 0 0 Z " fill="#070B13" transform="translate(515,4)"/>
<path d="M0 0 C0.8559375 0.00902344 1.711875 0.01804688 2.59375 0.02734375 C3.2228125 0.03894531 3.851875 0.05054688 4.5 0.0625 C4.5 0.3925 4.5 0.7225 4.5 1.0625 C0.82612505 1.91548376 -2.5447393 2.17039471 -6.3125 2.125 C-7.28832031 2.11597656 -8.26414062 2.10695312 -9.26953125 2.09765625 C-10.37361328 2.08025391 -10.37361328 2.08025391 -11.5 2.0625 C-11.5 2.7225 -11.5 3.3825 -11.5 4.0625 C-12.79550781 4.22105469 -14.09101563 4.37960938 -15.42578125 4.54296875 C-28.77644964 6.26457549 -41.70666812 8.79805604 -54.5 13.0625 C-55.89439664 13.12915376 -57.29169875 13.14788199 -58.6875 13.125 C-60.5746875 13.0940625 -60.5746875 13.0940625 -62.5 13.0625 C-62.5 13.7225 -62.5 14.3825 -62.5 15.0625 C-74.05119153 19.02840909 -74.05119153 19.02840909 -78.4375 20 C-121.97896896 30.25038748 -165.63169446 63.71900203 -194.0546875 97.49609375 C-195.5 99.0625 -195.5 99.0625 -197.5 100.0625 C-196.17528341 97.15241472 -194.71448259 94.99401975 -192.5234375 92.671875 C-191.93925049 92.04877441 -191.35506348 91.42567383 -190.75317383 90.78369141 C-190.13337646 90.13319824 -189.5135791 89.48270508 -188.875 88.8125 C-188.23908936 88.14009277 -187.60317871 87.46768555 -186.94799805 86.77490234 C-185.13735259 84.86557844 -183.31955055 82.96333266 -181.5 81.0625 C-180.73558594 80.25554687 -179.97117187 79.44859375 -179.18359375 78.6171875 C-174.01141708 73.28304288 -168.3094863 68.68164053 -162.5 64.0625 C-161.42646889 63.18695076 -160.35357003 62.31062583 -159.28125 61.43359375 C-117.22451502 27.33353836 -54.75164 -0.76043944 0 0 Z " fill="#070B13" transform="translate(284.5,36.9375)"/>
<path d="M0 0 C1.30313475 3.90940424 0.3965419 4.90392209 -1.359375 8.56640625 C-1.89248291 9.68289551 -2.42559082 10.79938477 -2.97485352 11.94970703 C-3.56541518 13.1545376 -4.15715716 14.35879025 -4.75 15.5625 C-5.04655487 16.17091736 -5.34310974 16.77933472 -5.64865112 17.40618896 C-10.82231543 28.00173354 -16.44363313 38.19193308 -23 48 C-23.4832373 48.72364746 -23.96647461 49.44729492 -24.46435547 50.19287109 C-31.06160664 59.97603855 -38.13798804 69.20349978 -46 78 C-46.46825195 78.52464844 -46.93650391 79.04929687 -47.41894531 79.58984375 C-55.50638031 88.60896008 -63.70676882 97.15291505 -73.18359375 104.734375 C-74.94868449 106.15428156 -76.6945217 107.59884205 -78.41015625 109.078125 C-92.80584109 121.39772851 -109.27152156 131.21125992 -126 140 C-126.68835938 140.36802734 -127.37671875 140.73605469 -128.0859375 141.11523438 C-136.53447625 145.6227402 -136.53447625 145.6227402 -140 147 C-140.99 146.67 -141.98 146.34 -143 146 C-142.33693848 145.66379639 -141.67387695 145.32759277 -140.99072266 144.98120117 C-107.30549686 127.84182778 -73.39551347 107.56866922 -49 78 C-48.195625 77.08347656 -47.39125 76.16695312 -46.5625 75.22265625 C-27.69575516 53.66115007 -14.10825091 29.13829302 -2.11645508 3.2746582 C-1 1 -1 1 0 0 Z " fill="#090F1A" transform="translate(601,443)"/>
<path d="M0 0 C0.8559375 0.00902344 1.711875 0.01804688 2.59375 0.02734375 C3.2228125 0.03894531 3.851875 0.05054688 4.5 0.0625 C4.5 0.3925 4.5 0.7225 4.5 1.0625 C0.82612505 1.91548376 -2.5447393 2.17039471 -6.3125 2.125 C-7.28832031 2.11597656 -8.26414062 2.10695312 -9.26953125 2.09765625 C-10.37361328 2.08025391 -10.37361328 2.08025391 -11.5 2.0625 C-11.5 2.7225 -11.5 3.3825 -11.5 4.0625 C-13.44326172 4.30033203 -13.44326172 4.30033203 -15.42578125 4.54296875 C-28.77644964 6.26457549 -41.70666812 8.79805604 -54.5 13.0625 C-55.89439664 13.12915376 -57.29169875 13.14788199 -58.6875 13.125 C-60.5746875 13.0940625 -60.5746875 13.0940625 -62.5 13.0625 C-62.5 13.7225 -62.5 14.3825 -62.5 15.0625 C-64.41405367 15.73663211 -66.33136026 16.4015332 -68.25 17.0625 C-69.31734375 17.43375 -70.3846875 17.805 -71.484375 18.1875 C-74.5 19.0625 -74.5 19.0625 -78.5 19.0625 C-78.5 18.4025 -78.5 17.7425 -78.5 17.0625 C-54.1207465 8.38200822 -26.13896786 -0.36304122 0 0 Z " fill="#0E1525" transform="translate(284.5,36.9375)"/>
<path d="M0 0 C1.32 0.33 2.64 0.66 4 1 C2.99259766 1.93972656 2.99259766 1.93972656 1.96484375 2.8984375 C-1.92592274 6.7960323 -5.13179142 11.23323275 -8.4375 15.625 C-9.13907227 16.55143311 -9.84064453 17.47786621 -10.56347656 18.43237305 C-16.32293017 26.05605719 -21.99745992 33.74106745 -27.6484375 41.4453125 C-32.70954735 48.33873979 -37.85539608 55.16879515 -43 62 C-47.31085759 61.32084333 -49.10640878 60.3222714 -52 57 C-50.68 57 -49.36 57 -48 57 C-47.67 57.66 -47.34 58.32 -47 59 C-46.01 59 -45.02 59 -44 59 C-42.49892636 57.51329856 -42.49892636 57.51329856 -41.13671875 55.4765625 C-40.58693359 54.71214844 -40.03714844 53.94773437 -39.47070312 53.16015625 C-38.88224609 52.32355469 -38.29378906 51.48695313 -37.6875 50.625 C-36.42271614 48.86564477 -35.15573341 47.10786851 -33.88671875 45.3515625 C-32.91677979 44.00626465 -32.91677979 44.00626465 -31.92724609 42.63378906 C-29.03885038 38.68648567 -26.02631194 34.8419624 -23 31 C-15.07123591 20.89585929 -7.12728294 10.69092441 0 0 Z " fill="#070A13" transform="translate(177,584)"/>
<path d="M0 0 C-4.69493691 2.19763004 -9.08871922 3.58663388 -14.1796875 4.5703125 C-16.00897624 4.83372811 -16.00897624 4.83372811 -17 6 C-27.56020628 8.05183375 -38.13652883 8.34385047 -48.86035156 8.31567383 C-51.36567716 8.31251177 -53.86981883 8.33609009 -56.375 8.36132812 C-71.92477017 8.42245271 -86.26534119 6.04822224 -101 1 C-97.05748583 -0.31417139 -94.25274657 0.78398442 -90.375 1.8125 C-62.76452375 8.62787406 -33.02050558 8.02854231 -5.80078125 -0.328125 C-3 -1 -3 -1 0 0 Z " fill="#03050B" transform="translate(376,486)"/>
<path d="M0 0 C-2.70471741 1.42868465 -5.31334102 2.47933937 -8.24609375 3.33984375 C-27.48846997 9.21399017 -46.45697849 17.87278355 -61.60205078 31.43457031 C-63.0107094 32.69046196 -64.50105301 33.85337852 -66 35 C-66.99 34.67 -67.98 34.34 -69 34 C-62.20906105 27.41150096 -54.76471258 22.20883679 -46.81201172 17.15332031 C-45.21087458 16.13421874 -43.62202196 15.09587211 -42.03515625 14.0546875 C-30.50577379 6.84275962 -13.87775519 -0.69388776 0 0 Z " fill="#080C15" transform="translate(288,161)"/>
<path d="M0 0 C0 4.08131752 -2.08542596 5.68996311 -4.75 8.5 C-5.24298584 9.02682373 -5.73597168 9.55364746 -6.24389648 10.09643555 C-14.27980777 18.57308712 -22.85600805 27.0793035 -33 33 C-33.66 33 -34.32 33 -35 33 C-35 33.66 -35 34.32 -35 35 C-37.31 35.66 -39.62 36.32 -42 37 C-42 37.66 -42 38.32 -42 39 C-42.680625 39.2475 -43.36125 39.495 -44.0625 39.75 C-47.11739098 40.96706355 -47.11739098 40.96706355 -50.1875 42.9375 C-54.46886973 45.44045461 -59.12505917 47.08807925 -64 48 C-64.99 47.67 -65.98 47.34 -67 47 C-66.01902344 46.5875 -65.03804688 46.175 -64.02734375 45.75 C-39.27201249 35.21970097 -17.12799823 21.17643418 0 0 Z " fill="#05080E" transform="translate(443,437)"/>
<path d="M0 0 C6.54888016 -0.29802372 12.11793975 0.78357039 18.4375 2.4375 C24.32563967 3.95963314 30.02498406 5.2357516 36.08618164 5.80493164 C38.27957141 6.02849567 40.36418912 6.45757184 42.5 7 C46.98392605 8.05969328 51.41507888 8.56334085 56 9 C56 9.33 56 9.66 56 10 C47.59372542 10.39737861 39.64213689 9.184625 31.375 7.75 C30.71546326 7.63806305 30.05592651 7.5261261 29.37640381 7.41079712 C19.45754844 5.72672748 9.67815991 3.76739716 0 1 C0 0.67 0 0.34 0 0 Z " fill="#0F1829" transform="translate(233,605)"/>
<path d="M0 0 C6.73259822 0.56263923 12.60384582 2.8960565 18.875 5.3125 C19.91269531 5.70373047 20.95039063 6.09496094 22.01953125 6.49804688 C27.49661963 8.58044555 32.87273664 10.77097035 38.16455078 13.28979492 C40.13829876 14.18043267 40.13829876 14.18043267 43 14 C45.18777466 12.0624994 45.18777466 12.0624994 47 10 C45.92598892 12.91517292 45.22189824 14.77810176 43 17 C38.72138731 16.65410161 35.34925063 14.79201564 31.5625 12.875 C24.01886796 9.16726116 16.20068378 6.68483296 8.15063477 4.31005859 C7.23725342 4.03629395 6.32387207 3.7625293 5.3828125 3.48046875 C4.56184082 3.24223389 3.74086914 3.00399902 2.89501953 2.75854492 C1 2 1 2 0 0 Z " fill="#070B13" transform="translate(427,50)"/>
<path d="M0 0 C2.42429525 3.02321774 4.13814586 6.08758094 5.8125 9.578125 C6.33070313 10.65707031 6.84890625 11.73601562 7.3828125 12.84765625 C7.91648437 13.97042969 8.45015625 15.09320313 9 16.25 C9.80050781 17.91095703 9.80050781 17.91095703 10.6171875 19.60546875 C18.38283158 35.85150525 18.38283158 35.85150525 17 40 C14.17344555 34.55626551 11.75207817 29.04422411 9.43359375 23.3671875 C7.53209197 18.90098986 5.45252231 14.52550132 3.32299805 10.16381836 C1.70852272 6.79304037 0.534503 3.70635631 0 0 Z " fill="#090E17" transform="translate(589,177)"/>
<path d="M0 0 C0.68449219 0.27585937 1.36898438 0.55171875 2.07421875 0.8359375 C5.31107709 2.12376632 8.56021876 3.37664963 11.8125 4.625 C12.97394531 5.07101562 14.13539063 5.51703125 15.33203125 5.9765625 C16.21246094 6.31429688 17.09289062 6.65203125 18 7 C18 7.66 18 8.32 18 9 C20.64 9.66 23.28 10.32 26 11 C21.26390628 12.18402343 19.68108604 11.44422312 15.1875 9.75 C14.56528564 9.51547119 13.94307129 9.28094238 13.30200195 9.03930664 C11.53154748 8.36770698 9.76563033 7.68418175 8 7 C7.195625 6.71511719 6.39125 6.43023437 5.5625 6.13671875 C3.6875 5.4375 3.6875 5.4375 1 4 C0.0625 1.8125 0.0625 1.8125 0 0 Z " fill="#0B101C" transform="translate(257,478)"/>
<path d="M0 0 C1.23363281 0.07863281 2.46726563 0.15726563 3.73828125 0.23828125 C4.71152344 0.38652344 5.68476563 0.53476562 6.6875 0.6875 C7.0175 1.3475 7.3475 2.0075 7.6875 2.6875 C0.0975 2.6875 -7.4925 2.6875 -15.3125 2.6875 C-11.26014344 -1.36485656 -5.37051251 -0.37996234 0 0 Z " fill="#030509" transform="translate(137.3125,647.3125)"/>
<path d="M0 0 C0.33 0.66 0.66 1.32 1 2 C-6.26 2 -13.52 2 -21 2 C-20.67 1.34 -20.34 0.68 -20 0 C-13.50594618 -1.62351346 -6.55963501 -1.0932725 0 0 Z " fill="#03060A" transform="translate(454,648)"/>
<path d="M0 0 C1.49247268 3.88042896 0.46558216 6.21093392 -1 10 C-2.28177523 12.51506562 -3.68940157 14.94513551 -5.125 17.375 C-5.49753906 18.01566406 -5.87007813 18.65632813 -6.25390625 19.31640625 C-7.16434002 20.88048477 -8.08148191 22.44065534 -9 24 C-9.33 23.34 -9.66 22.68 -10 22 C-9.30322266 20.07641602 -9.30322266 20.07641602 -8.1640625 17.75390625 C-7.75929688 16.91666016 -7.35453125 16.07941406 -6.9375 15.21679688 C-6.504375 14.34087891 -6.07125 13.46496094 -5.625 12.5625 C-4.78246859 10.83531062 -3.94126566 9.1074724 -3.1015625 7.37890625 C-2.72338379 6.6113501 -2.34520508 5.84379395 -1.95556641 5.05297852 C-0.89694393 2.88022195 -0.89694393 2.88022195 0 0 Z " fill="#0B111D" transform="translate(468,392)"/>
<path d="M0 0 C0 0.66 0 1.32 0 2 C-1.62212059 2.52973311 -3.24781584 3.04853107 -4.875 3.5625 C-5.77992188 3.85253906 -6.68484375 4.14257812 -7.6171875 4.44140625 C-10 5 -10 5 -12 4 C-10.75539217 3.32332002 -9.50403104 2.65905281 -8.25 2 C-7.55390625 1.62875 -6.8578125 1.2575 -6.140625 0.875 C-4 0 -4 0 0 0 Z " fill="#0D1422" transform="translate(266,167)"/>
</svg>
